<?xml version="1.0" encoding="UTF-8"?>
<!DOCTYPE svg PUBLIC "-//W3C//DTD SVG 1.1//EN" "http://www.w3.org/Graphics/SVG/1.1/DTD/svg11.dtd">
<!-- Creator: CorelDRAW 2020 (64 Bit) -->
<svg xmlns="http://www.w3.org/2000/svg" xml:space="preserve" width="20px" height="20px" version="1.1" style="shape-rendering:geometricPrecision; text-rendering:geometricPrecision; image-rendering:optimizeQuality; fill-rule:evenodd; clip-rule:evenodd"
viewBox="0 0 200 200"
 xmlns:xlink="http://www.w3.org/1999/xlink"
 xmlns:xodm="http://www.corel.com/coreldraw/odm/2003"
 enable-background="new 0 0 511.004 511.004">
 <defs>
  <style type="text/css">
   <![CDATA[
    .fil1 {fill:white;fill-rule:nonzero}
    .fil0 {fill:url(#id0)}
   ]]>
  </style>
  <linearGradient id="id0" gradientUnits="userSpaceOnUse" x1="30.8" y1="18.2" x2="157.8" y2="186.2">
   <stop offset="0" style="stop-opacity:1; stop-color:#77C66E"/>
   <stop offset="1" style="stop-opacity:1; stop-color:#604CD9"/>
  </linearGradient>
 </defs>
 <g id="Camada_x0020_1">
  <metadata id="CorelCorpID_0Corel-Layer"/>
  <rect class="fil0" width="200" height="200" rx="100" ry="100"/>
  <path class="fil1" d="M79.3 154.9c2.2,0.9 4.4,1.3 6.6,1.3 4.5,0 8.9,-1.8 12.2,-5.1l38.9 -38.9c6.7,-6.7 6.7,-17.7 -0.1,-24.4l-38.9 -38.9c-3.3,-3.3 -7.7,-5.1 -12.2,-5.1 -2.2,0 -4.3,0.4 -6.5,1.3 -6.4,2.7 -10.5,9 -10.5,16l0 77.8c0,7 4.1,13.3 10.5,16zm6.8 -92.5l0 -1.3 38.9 38.9 -38.9 38.9 0 -76.5z"/>
 </g>
</svg>
