<?xml version="1.0" encoding="UTF-8"?>
<!DOCTYPE svg PUBLIC "-//W3C//DTD SVG 1.1//EN" "http://www.w3.org/Graphics/SVG/1.1/DTD/svg11.dtd">
<!-- Creator: CorelDRAW 2020 (64 Bit) -->
<svg xmlns="http://www.w3.org/2000/svg" xml:space="preserve" width="65px" height="30px" version="1.1" style="shape-rendering:geometricPrecision; text-rendering:geometricPrecision; image-rendering:optimizeQuality; fill-rule:evenodd; clip-rule:evenodd"
viewBox="0 0 650 300"
 xmlns:xlink="http://www.w3.org/1999/xlink"
 xmlns:xodm="http://www.corel.com/coreldraw/odm/2003">
 <defs>
  <style type="text/css">
   <![CDATA[
    .fil0 {fill:white;fill-rule:nonzero}
    .fil1 {fill:url(#id0)}
   ]]>
  </style>
  <linearGradient id="id0" gradientUnits="userSpaceOnUse" x1="253.7" y1="138" x2="81.8" y2="138">
   <stop offset="0" style="stop-opacity:1; stop-color:#604CD9"/>
   <stop offset="1" style="stop-opacity:1; stop-color:#7A4CD9"/>
  </linearGradient>
 </defs>
 <g id="Camada_x0020_1">
  <metadata id="CorelCorpID_0Corel-Layer"/>
  <path class="fil0" d="M353 99.4l60.7 0c10.1,0 17.5,2.3 22.1,6.9 4.5,4.5 6.8,11.9 6.8,22l0 13c0,8 -1.3,14.2 -3.9,18.7 -2.7,4.4 -6.9,7.3 -12.7,8.8l18.1 31.8 -28.2 0 -16.6 -30.4 -20.3 0 0 30.4 -26 0 0 -101.2zm63.6 28.9c0,-5.8 -2.9,-8.7 -8.7,-8.7l-28.9 0 0 30.4 28.9 0c5.8,0 8.7,-2.9 8.7,-8.7l0 -13z"/>
  <polygon id="1" class="fil0" points="504.8,200.6 452.8,200.6 452.8,180.3 465.8,180.3 465.8,119.6 452.8,119.6 452.8,99.4 504.8,99.4 504.8,119.6 491.8,119.6 491.8,180.3 504.8,180.3 "/>
  <polygon id="2" class="fil0" points="567,200.6 540.9,200.6 540.9,119.6 510.6,119.6 510.6,99.4 597.3,99.4 597.3,119.6 567,119.6 "/>
  <path class="fil1" d="M158.8 33.8c64.2,0 116.2,52 116.2,116.2 0,64.2 -52,116.2 -116.2,116.2 -64.2,0 -116.2,-52 -116.2,-116.2 0,-64.2 52,-116.2 116.2,-116.2zm0 55.6c33.4,0 60.5,27.2 60.5,60.6 0,33.4 -27.1,60.5 -60.5,60.5 -33.5,0 -60.6,-27.1 -60.6,-60.5 0,-33.4 27.1,-60.6 60.6,-60.6z"/>
 </g>
</svg>
