<?xml version="1.0" encoding="UTF-8"?>
<!DOCTYPE svg PUBLIC "-//W3C//DTD SVG 1.1//EN" "http://www.w3.org/Graphics/SVG/1.1/DTD/svg11.dtd">
<!-- Creator: CorelDRAW 2020 (64 Bit) -->
<svg xmlns="http://www.w3.org/2000/svg" xml:space="preserve" width="20px" height="20px" version="1.1" style="shape-rendering:geometricPrecision; text-rendering:geometricPrecision; image-rendering:optimizeQuality; fill-rule:evenodd; clip-rule:evenodd"
viewBox="0 0 200 200"
 xmlns:xlink="http://www.w3.org/1999/xlink"
 xmlns:xodm="http://www.corel.com/coreldraw/odm/2003"
 enable-background="new 0 0 511.004 511.004">
 <defs>
  <style type="text/css">
   <![CDATA[
    .fil0 {fill:url(#id0)}
   ]]>
  </style>
  <linearGradient id="id0" gradientUnits="userSpaceOnUse" x1="30.8" y1="18.2" x2="157.8" y2="186.2">
   <stop offset="0" style="stop-opacity:1; stop-color:#77C66E"/>
   <stop offset="1" style="stop-opacity:1; stop-color:#604CD9"/>
  </linearGradient>
 </defs>
 <g id="Camada_x0020_1">
  <metadata id="CorelCorpID_0Corel-Layer"/>
  <path class="fil0" d="M100 0l0 0c55,0 100,45 100,100l0 0c0,55 -45,100 -100,100l0 0c-55,0 -100,-45 -100,-100l0 0c0,-55 45,-100 100,-100zm-20.6 154.9c2.1,0.9 4.3,1.3 6.5,1.3 4.5,0 8.9,-1.8 12.2,-5.1l38.9 -38.9c6.7,-6.7 6.7,-17.7 0,-24.4l-38.9 -38.9c-3.4,-3.3 -7.8,-5.1 -12.3,-5.1 -2.2,0 -4.3,0.4 -6.4,1.3 -6.5,2.7 -10.6,9 -10.6,16l0 77.8c0,7 4.1,13.3 10.6,16zm6.7 -92.5l0 -1.3 38.9 38.9 -38.9 38.9 0 -76.5zm13.9 -47.4l0 0c46.8,0 85,38.2 85,85l0 0c0,46.8 -38.2,85 -85,85l0 0c-46.8,0 -85,-38.2 -85,-85l0 0c0,-46.8 38.2,-85 85,-85z"/>
 </g>
</svg>
